<svg xmlns="http://www.w3.org/2000/svg" width="9.441" height="11.603" viewBox="338.458 874.457 9.441 11.603"><path d="M341.485 884.115a1.05 1.05 0 0 1-.775-.307 1.05 1.05 0 0 1-.306-.774v-7.496c0-.312.102-.57.306-.774a1.05 1.05 0 0 1 .775-.307h5.333c.312 0 .57.103.775.307.204.204.306.462.306.774v7.496c0 .312-.102.57-.306.774a1.05 1.05 0 0 1-.775.307h-5.333Zm0-.505h5.333c.144 0 .276-.06.396-.18s.18-.252.18-.396v-7.496a.551.551 0 0 0-.18-.396.551.551 0 0 0-.396-.18h-5.333a.551.551 0 0 0-.397.18.551.551 0 0 0-.18.396v7.496c0 .144.06.276.18.396s.253.18.397.18Zm-1.946 2.45a1.05 1.05 0 0 1-.775-.306 1.05 1.05 0 0 1-.306-.775v-7.747c0-.072.024-.132.072-.18a.244.244 0 0 1 .18-.072.244.244 0 0 1 .252.252v7.747c0 .145.06.277.18.397s.253.18.397.18h5.585a.245.245 0 0 1 .253.252.245.245 0 0 1-.253.253h-5.585Zm1.37-2.45v-8.648 8.648Z" fill-rule="evenodd" data-name="content_copy_FILL0_wght100_GRAD0_opsz24"/></svg>