<svg xmlns="http://www.w3.org/2000/svg" width="24.242" height="24.243" viewBox="1.04 1.489 24.242 24.243"><path d="M23.489 1.49H2.829c-.987 0-1.789.782-1.789 1.747v20.746c0 .966.802 1.75 1.788 1.75H23.49c.988 0 1.793-.784 1.793-1.75V3.237c0-.965-.805-1.748-1.793-1.748M8.231 22.147h-3.6V10.578h3.6v11.57ZM6.433 8.997a2.084 2.084 0 1 1 0-4.17 2.085 2.085 0 0 1 0 4.17m15.265 13.15h-3.595v-5.626c0-1.342-.023-3.068-1.868-3.068-1.871 0-2.157 1.463-2.157 2.972v5.722h-3.591V10.578h3.447v1.582h.049c.48-.91 1.652-1.87 3.402-1.87 3.64 0 4.313 2.396 4.313 5.512v6.345Z" fill="#fff" fill-rule="evenodd" data-name="Path 2"/></svg>