<svg xmlns="http://www.w3.org/2000/svg" width="30" height="34.643"><path d="M29.815 19.426a.621.621 0 0 0-.456-.185h-8.832a.77.77 0 0 1-.567-.222.764.764 0 0 1-.222-.567V2.862c0-.795-.278-1.471-.835-2.027A2.758 2.758 0 0 0 16.877 0H2.862C2.066 0 1.392.28.835.835A2.756 2.756 0 0 0 0 2.862v29.696c0 .747.31 1.324.933 1.732.622.408 1.277.463 1.968.165l4.795-2.062 4.796 2.062c.69.298 1.347.243 1.968-.165.622-.408.933-.985.933-1.732v-7.763H14.11v7.707c0 .28-.12.501-.358.665a.73.73 0 0 1-.752.075l-5.304-2.29-5.302 2.29a.732.732 0 0 1-.753-.075.769.769 0 0 1-.358-.665V2.862c0-.448.156-.822.468-1.125a1.539 1.539 0 0 1 1.11-.454h11.773c-.146.231-.269.476-.37.736-.1.26-.15.542-.15.843V14.11h1.282V2.862c0-.43.147-.8.439-1.11a1.43 1.43 0 0 1 1.086-.469c.433 0 .796.157 1.092.468.295.31.443.681.443 1.111v15.59c0 .57.202 1.057.608 1.464.406.405.894.608 1.463.608h8.832a.625.625 0 0 0 .641-.64.622.622 0 0 0-.185-.458" fill-rule="evenodd" data-name="Path 5"/></svg>