<svg xmlns="http://www.w3.org/2000/svg" width="24.242" height="18.67" viewBox="71.131 465.859 24.242 18.67"><path d="M73.221 484.528c-.604 0-1.103-.197-1.498-.592-.394-.395-.592-.894-.592-1.498v-14.49c0-.603.198-1.103.592-1.497.395-.395.894-.592 1.498-.592h20.063c.604 0 1.103.197 1.498.592.394.394.592.894.592 1.498v14.49c0 .603-.198 1.102-.592 1.497-.395.395-.894.592-1.498.592H73.22ZM94.398 467.6l-10.553 7.001a2.92 2.92 0 0 1-.279.122.889.889 0 0 1-.313.052.889.889 0 0 1-.314-.052 2.917 2.917 0 0 1-.279-.122l-10.553-7v14.837c0 .325.104.592.313.801.209.21.476.314.801.314h20.063c.325 0 .592-.105.801-.314.209-.209.313-.476.313-.8V467.6Zm-11.145 6.2 10.588-6.966H72.664l10.589 6.966Zm-11.146-6.2v.279-.853.052-.244.244-.087.888-.279 15.953V467.6Z" fill-rule="evenodd" data-name="mail_FILL0_wght100_GRAD0_opsz24"/></svg>