<svg xmlns="http://www.w3.org/2000/svg" width="24.242" height="24.242" viewBox="71.131 392.121 24.242 24.242"><path d="M93.681 416.364c-2.466 0-5.03-.65-7.693-1.949-2.663-1.298-5.156-3.115-7.478-5.45s-4.132-4.828-5.43-7.478c-1.3-2.65-1.949-5.207-1.949-7.674 0-.483.158-.886.473-1.208a1.583 1.583 0 0 1 1.18-.484h3.149c.446 0 .833.138 1.16.413.329.276.558.637.69 1.083l.708 3.227c.078.446.065.84-.04 1.18a1.652 1.652 0 0 1-.55.827l-3.346 3.03a26.718 26.718 0 0 0 2.224 3.404 34.19 34.19 0 0 0 2.538 2.932 27.045 27.045 0 0 0 3.07 2.637 32.454 32.454 0 0 0 3.66 2.322l3.266-3.345c.262-.289.545-.473.846-.551.302-.079.65-.092 1.043-.04l2.676.551c.446.105.807.328 1.083.67.275.34.413.734.413 1.18v3.07c0 .472-.161.866-.484 1.18-.322.315-.725.473-1.209.473Zm-19.637-15.506 3.148-2.834a.73.73 0 0 0 .256-.433.959.959 0 0 0-.02-.511l-.708-3.227c-.053-.21-.145-.368-.276-.473a.794.794 0 0 0-.511-.157h-3.149a.534.534 0 0 0-.55.551c0 1.076.163 2.217.491 3.424a25.128 25.128 0 0 0 1.319 3.66Zm13.065 12.83c1.076.55 2.237.95 3.483 1.2s2.29.374 3.129.374a.534.534 0 0 0 .55-.551v-3.07c0-.21-.052-.38-.157-.512-.105-.13-.262-.223-.472-.275l-2.676-.551a.648.648 0 0 0-.413-.02c-.118.04-.243.125-.374.256l-3.07 3.149Zm-13.065-12.83Zm13.065 12.83Z" fill="#fff" fill-rule="evenodd" data-name="call_FILL0_wght100_GRAD0_opsz24"/></svg>