<svg xmlns="http://www.w3.org/2000/svg" width="20" height="20.855" viewBox="323.5 560.145 20 20.855"><path d="M325.722 581a.538.538 0 0 1-.396-.16.538.538 0 0 1-.16-.395c0-.159.054-.29.16-.397a.538.538 0 0 1 .396-.159h15.556c.158 0 .29.053.396.16.106.105.16.237.16.396 0 .158-.054.29-.16.396a.538.538 0 0 1-.396.16h-15.556Zm0-19.743a.538.538 0 0 1-.396-.16.537.537 0 0 1-.16-.396c0-.158.054-.29.16-.396a.538.538 0 0 1 .396-.16h15.556c.158 0 .29.053.396.16.106.106.16.238.16.396 0 .158-.054.29-.16.396a.538.538 0 0 1-.396.16h-15.556Zm7.778 11.538c.77 0 1.425-.27 1.966-.812a2.678 2.678 0 0 0 .812-1.966c0-.77-.27-1.424-.812-1.966a2.678 2.678 0 0 0-1.966-.812c-.77 0-1.424.271-1.966.812a2.678 2.678 0 0 0-.812 1.966c0 .77.27 1.425.812 1.966a2.678 2.678 0 0 0 1.966.812Zm-8.205 5.555c-.512 0-.939-.17-1.281-.514-.343-.342-.514-.769-.514-1.28V564.59c0-.512.171-.939.514-1.281.342-.343.77-.514 1.28-.514h16.411c.512 0 .939.171 1.281.514.343.342.514.77.514 1.28v11.967c0 .511-.171.938-.514 1.28-.342.343-.77.514-1.28.514h-16.411Zm2.714-1.11c.833-.753 1.707-1.311 2.621-1.676a7.68 7.68 0 0 1 2.87-.547 7.68 7.68 0 0 1 2.87.547c.914.365 1.788.923 2.621 1.675h2.714c.171 0 .328-.07.47-.213a.654.654 0 0 0 .214-.47V564.59a.654.654 0 0 0-.214-.47.654.654 0 0 0-.47-.214h-16.41a.654.654 0 0 0-.47.214.653.653 0 0 0-.214.47v11.966c0 .17.071.327.214.47.142.142.299.213.47.213h2.714Zm1.824 0h7.334a6.13 6.13 0 0 0-1.736-.834 6.72 6.72 0 0 0-1.931-.278 6.72 6.72 0 0 0-1.93.278 6.13 6.13 0 0 0-1.737.833Zm3.667-5.556c-.457 0-.85-.164-1.176-.49a1.605 1.605 0 0 1-.49-1.177c0-.457.163-.85.49-1.176.327-.327.719-.49 1.176-.49.457 0 .85.163 1.176.49.327.327.49.719.49 1.176 0 .457-.163.85-.49 1.176-.327.327-.719.49-1.176.49Zm0-1.111Z" fill-rule="evenodd" data-name="contacts_FILL0_wght200_GRAD0_opsz24"/></svg>